<svg width="162" height="161" viewBox="0 0 162 161" fill="none" xmlns="http://www.w3.org/2000/svg">
<g filter="url(#filter0_i_15311_12771)">
<path d="M7.75759 59.4675C2.20255 52.4391 6.61329 42.048 15.528 41.1616V41.1616C22.1408 40.5041 26.7716 34.3243 25.5459 27.7929V27.7929C23.8934 18.9879 32.6279 11.8369 40.9334 15.1949V15.1949C47.0944 17.6858 54.0666 14.3659 56.0165 8.01303V8.01303C58.6452 -0.551305 69.7025 -2.82412 75.4961 4.009V4.009C79.7938 9.07771 87.5102 9.3783 92.1892 4.65925V4.65925C98.4968 -1.70247 109.344 1.4236 111.298 10.1665V10.1665C112.748 16.6518 119.441 20.504 125.777 18.4999V18.4999C134.319 15.7982 142.47 23.607 140.138 32.2567V32.2567C138.408 38.673 142.544 45.1942 149.085 46.3642V46.3642C157.904 47.9414 161.493 58.6441 155.408 65.2191V65.2191C150.895 70.0964 151.526 77.7928 156.775 81.8688V81.8688C163.851 87.3636 162.055 98.5083 153.611 101.502V101.502C147.348 103.723 144.331 110.832 147.084 116.88V116.88C150.795 125.034 144.026 134.067 135.158 132.794V132.794C128.58 131.85 122.605 136.742 122.232 143.377V143.377C121.729 152.322 111.537 157.175 104.277 151.927V151.927C98.891 148.034 91.3269 149.589 87.9133 155.29V155.29C83.3114 162.977 72.0315 162.537 68.0415 154.516V154.516C65.0817 148.566 57.6615 146.428 51.9892 149.89V149.89C44.3423 154.557 34.5587 148.926 34.7533 139.97V139.97C34.8977 133.326 29.3211 127.984 22.6896 128.413V128.413C13.7497 128.992 7.70359 119.46 12.0382 111.619V111.619C15.2536 105.804 12.7983 98.4821 6.72679 95.7807V95.7807C-1.45825 92.1388 -2.38169 80.8882 5.09995 75.9605V75.9605C10.6497 72.3051 11.8782 64.6812 7.75759 59.4675V59.4675Z" fill="url(#paint0_linear_15311_12771)"/>
</g>
<defs>
<filter id="filter0_i_15311_12771" x="-10.9025" y="-12.1139" width="172.063" height="172.916" filterUnits="userSpaceOnUse" color-interpolation-filters="sRGB">
<feFlood flood-opacity="0" result="BackgroundImageFix"/>
<feBlend mode="normal" in="SourceGraphic" in2="BackgroundImageFix" result="shape"/>
<feColorMatrix in="SourceAlpha" type="matrix" values="0 0 0 0 0 0 0 0 0 0 0 0 0 0 0 0 0 0 127 0" result="hardAlpha"/>
<feOffset dx="-10.9025" dy="-12.1139"/>
<feGaussianBlur stdDeviation="17.5651"/>
<feComposite in2="hardAlpha" operator="arithmetic" k2="-1" k3="1"/>
<feColorMatrix type="matrix" values="0 0 0 0 0.00517701 0 0 0 0 0.0123699 0 0 0 0 0.00870292 0 0 0 0.37 0"/>
<feBlend mode="normal" in2="shape" result="effect1_innerShadow_15311_12771"/>
</filter>
<linearGradient id="paint0_linear_15311_12771" x1="143.909" y1="4.9667" x2="94.7891" y2="138.46" gradientUnits="userSpaceOnUse">
<stop stop-color="#237249"/>
<stop offset="1" stop-color="#35C66B"/>
</linearGradient>
</defs>
</svg>
